# xmcd
#
# Track frame offsets:
#	150
#	12225
#	21600
#	31875
#	43725
#	54150
#	64328
#	73358
#	86108
#	99008
#	109021
#	120309
#
# Disc length: 1725 seconds
#
# Revision: 1
# Processed by: cddbd v1.5.2PL0 Copyright (c) Steve Scherf et al.
# Submitted via: audiograbber 1.83.01
#
DISCID=9c06bb0c
DTITLE=Buck Owens - Your Tender Loving Care
DYEAR=1967
DGENRE=Country
TTITLE0=Your Tender Loving Care
TTITLE1=Song And Dance
TTITLE2=Only You (Can Break My Heart)
TTITLE3=What A Liar I Am
TTITLE4=Someone With No One To Love
TTITLE5=Rocks In My Head
TTITLE6=Sam's Place
TTITLE7=If I Had You Back Again
TTITLE8=House Of Memories
TTITLE9=Only You And You Alone
TTITLE10=Don't Ever Tell Me Goodbye
TTITLE11=You Made A Monkey Out Of Me
EXTD=
EXTT0=
EXTT1=
EXTT2=
EXTT3=
EXTT4=
EXTT5=
EXTT6=
EXTT7=
EXTT8=
EXTT9=
EXTT10=
EXTT11=
PLAYORDER=
